<svg xmlns="http://www.w3.org/2000/svg" viewBox="0 0 177 212" preserveAspectRatio="xMidYMid meet" aria-hidden="true">
  <path d="M157,178L155,189L152,186L148,180L145,179L145,193L147,192L148,183L152,187L155,192L158,192Z M122,179L120,181L119,183L119,188L120,190L123,193L129,193L131,192L133,190L134,188L134,184L133,182L130,179L128,178L125,178Z M125,179L127,179L129,180L132,183L132,189L129,192L124,192L121,189L120,187L120,184L121,182L123,180Z M108,179L106,179L106,193L108,192Z M85,178L84,180L86,179L88,180L90,193L91,180L96,179L87,179Z M67,178L62,181L61,183L61,189L65,193L72,193L74,190L71,192L66,192L63,189L62,187L62,185L64,181L67,179L69,179L74,182L72,179L70,178Z M40,179L40,193L51,193L42,191L43,186L50,186L42,184L43,179L45,179L48,180L51,179Z M22,178L20,179L18,181L19,185L21,186L24,186L26,187L28,189L27,191L21,192L18,190L20,193L26,193L28,192L29,190L29,188L27,186L25,185L22,185L19,182L21,180L24,179L28,181L27,179L25,178Z M100,108L97,110L79,140L78,143L81,141L84,136L85,133L92,123L99,111Z M111,18L107,19L103,21L101,23L100,25L101,28L102,25L106,21L110,19L114,19L117,20L121,24L122,26L122,35L121,37L116,42L110,44L115,44L120,46L124,50L125,52L125,63L123,67L120,70L116,72L107,72L105,71L99,64L99,70L103,72L107,73L116,73L121,71L126,67L126,66L128,64L129,62L129,52L128,50L123,45L121,44L116,43L125,35L126,33L126,26L124,22L123,21L116,18Z M62,18L56,20L49,27L47,31L45,37L44,47L45,55L47,61L50,66L54,70L57,72L60,73L68,73L72,71L78,65L80,62L82,57L83,52L83,38L81,31L79,27L75,22L72,20L67,18Z M60,19L67,19L71,21L73,23L76,28L78,34L79,39L79,54L78,59L75,66L70,71L68,72L60,72L58,71L54,67L51,61L49,53L49,37L51,29L53,25L58,20Z" fill="currentColor" fill-rule="evenodd"/>
</svg>
