<svg xmlns="http://www.w3.org/2000/svg" viewBox="0 0 230 164" preserveAspectRatio="xMidYMid meet" aria-hidden="true">
  <path d="M152,49L149,53L147,57L144,60L138,70L121,94L149,95L148,98L149,106L147,111L145,112L143,112L158,113L153,109L154,94L163,94L164,92L164,88L162,91L153,90Z M149,59L149,64L148,69L149,77L149,90L125,90L130,82L146,60L146,59Z M84,49L81,50L76,53L72,57L70,60L67,67L65,77L65,85L66,92L69,101L71,104L78,111L83,113L92,113L98,110L103,105L105,102L107,98L109,92L110,85L110,77L109,70L107,64L104,58L98,52L94,50L91,49Z M84,50L91,50L95,52L99,56L103,64L105,74L105,89L103,99L100,105L98,107L98,108L97,109L96,109L94,111L91,112L84,112L80,110L77,107L73,100L71,93L70,86L70,76L71,68L73,61L76,56L81,51Z M189,19L210,21L209,143L205,144L189,144L211,145L211,18Z M18,18L18,145L40,144L38,143L21,144L19,142L19,21L21,19L40,19Z" fill="currentColor" fill-rule="evenodd"/>
</svg>
