<svg xmlns="http://www.w3.org/2000/svg" viewBox="0 0 228 228" preserveAspectRatio="xMidYMid meet" aria-hidden="true">
  <path d="M134,82L130,84L126,88L127,94L128,90L134,84L139,82L144,82L148,84L151,87L154,94L154,100L152,108L145,120L128,140L124,143L125,145L159,144L160,142L160,138L161,137L161,133L160,136L156,140L153,141L129,140L133,136L133,135L141,127L148,119L155,109L158,102L158,91L156,87L152,83L147,81L138,81Z M85,81L82,82L77,85L74,88L70,94L67,104L67,123L69,130L71,134L73,137L78,142L85,145L93,145L99,142L105,136L108,131L111,121L111,105L109,97L106,91L104,88L101,85L98,83L93,81Z M85,82L92,82L95,83L100,88L103,93L105,99L106,104L106,123L105,128L103,134L100,139L97,142L93,144L85,144L83,143L76,136L73,129L71,118L71,108L73,96L75,91L77,88L81,84Z M103,18L96,19L84,22L70,28L63,32L56,37L50,42L42,50L35,59L29,69L26,75L23,83L19,99L18,109L18,119L20,134L26,152L31,162L37,171L42,177L50,185L62,194L67,197L80,203L86,205L99,208L108,209L119,209L128,208L138,206L150,202L162,196L171,190L176,186L187,175L193,167L202,150L206,138L208,129L209,119L209,109L207,94L205,86L200,73L197,67L192,59L185,50L177,42L167,34L157,28L143,22L125,18Z M99,20L108,19L119,19L128,20L138,22L147,25L161,32L170,38L181,48L188,56L194,65L201,79L204,88L207,103L207,125L203,143L200,151L196,159L188,171L184,176L177,183L167,191L159,196L153,199L140,204L125,207L102,207L91,205L84,203L74,199L63,193L56,188L51,183L50,183L39,171L34,164L26,148L23,139L21,131L20,124L20,103L22,92L27,77L33,65L39,56L45,50L45,49L50,44L56,39L66,32L80,25L86,23Z" fill="currentColor" fill-rule="evenodd"/>
</svg>
