<svg xmlns="http://www.w3.org/2000/svg" viewBox="0 0 260 280" preserveAspectRatio="xMidYMid meet" aria-hidden="true">
  <path d="M238,59L236,59L231,63L189,104L187,102L175,81L170,75L169,72L151,46L147,42L145,38L135,25L130,20L128,20L120,29L104,50L81,84L64,113L57,128L53,139L50,151L49,159L49,176L51,188L54,198L61,213L64,216L55,225L28,249L27,249L20,256L20,259L24,259L27,257L59,228L60,228L67,221L71,225L71,226L80,234L93,242L106,247L122,250L138,250L156,246L169,240L182,231L189,224L199,210L206,193L209,178L209,157L207,146L201,128L196,117L194,115L192,111L192,109L239,63Z M186,114L189,117L196,131L201,146L203,157L203,179L200,192L198,198L192,210L188,216L175,229L168,234L156,240L150,242L140,244L118,244L108,242L102,240L90,234L84,230L72,217L86,205L96,195L105,188L115,179L125,169L135,161L167,132L178,121L179,121Z M129,28L134,33L156,63L175,92L184,108L141,148L131,156L121,166L111,174L101,184L81,201L72,210L71,210L69,212L65,208L60,197L57,187L55,176L55,159L57,147L59,140L65,124L67,122L68,118L81,95L102,63L124,33Z" fill="currentColor" fill-rule="evenodd"/>
</svg>
