<svg xmlns="http://www.w3.org/2000/svg" viewBox="0 0 311 229" preserveAspectRatio="xMidYMid meet" aria-hidden="true">
  <path d="M24,30L22,36L20,38L20,49L22,51L24,58L67,138L71,144L83,155L79,160L77,165L62,188L55,201L53,203L52,205L53,207L57,208L65,194L68,191L70,186L86,160L89,157L96,160L109,161L239,162L241,161L246,167L252,178L265,198L269,206L271,208L273,208L275,206L275,204L271,199L269,194L250,164L252,162L266,162L278,164L290,163L290,161L280,149L261,132L246,124L231,120L158,117L119,117L112,115L105,109L82,66L68,37L63,29L58,24L51,20L36,20L31,23Z M29,32L32,29L37,26L41,25L46,25L50,26L54,28L59,33L61,36L75,65L85,84L95,101L95,103L103,115L110,120L116,122L140,123L176,123L228,125L234,126L244,129L257,136L267,144L277,154L278,156L276,158L268,158L249,156L198,155L98,155L91,153L85,150L76,141L69,130L65,121L59,112L51,97L51,95L42,80L28,53L26,47L26,39Z" fill="currentColor" fill-rule="evenodd"/>
</svg>
