<svg xmlns="http://www.w3.org/2000/svg" viewBox="0 0 274 285" preserveAspectRatio="xMidYMid meet" aria-hidden="true">
  <path d="M22,20L20,22L20,24L22,26L30,26L32,28L32,254L33,256L36,259L44,262L46,264L63,264L65,262L68,262L74,258L76,258L80,261L85,262L87,264L104,264L106,262L109,262L115,258L117,258L123,262L126,262L128,264L145,264L147,262L152,261L154,259L157,258L166,262L168,264L186,264L188,262L198,258L207,262L209,264L227,264L229,262L237,259L241,253L241,28L243,26L251,26L253,24L253,22L251,20Z M40,26L70,26L75,40L80,26L111,26L115,39L119,37L119,28L121,26L152,26L155,39L159,38L159,29L162,26L193,26L195,28L195,37L198,39L202,26L233,26L235,28L235,252L231,256L211,258L200,252L200,47L197,45L195,47L194,253L184,258L170,258L160,252L160,52L158,46L154,47L154,252L143,258L129,258L119,252L119,48L116,45L113,48L113,252L103,258L88,258L78,252L78,47L74,46L72,48L72,252L62,258L48,258L38,253L38,28Z" fill="currentColor" fill-rule="evenodd"/>
</svg>
