<svg xmlns="http://www.w3.org/2000/svg" viewBox="0 0 320 214" preserveAspectRatio="xMidYMid meet" aria-hidden="true">
  <path d="M20,92L20,122L22,124L22,128L27,142L35,156L38,160L53,175L62,181L77,188L84,190L92,191L94,193L121,193L123,191L127,191L142,186L155,179L158,176L161,176L171,183L180,187L189,190L197,191L199,193L225,193L227,191L235,190L242,188L259,180L270,172L278,164L283,158L290,147L297,129L297,125L299,123L299,90L297,88L296,81L293,73L288,63L282,54L271,42L259,33L248,27L234,22L230,22L228,20L197,20L195,22L191,22L179,26L169,31L163,35L160,38L158,36L145,28L132,23L125,22L123,20L91,20L89,22L74,26L62,32L51,40L40,51L31,64L27,72L23,83L22,90Z M160,45L172,58L177,66L182,76L185,85L187,94L188,107L187,119L185,128L182,137L176,149L172,155L168,160L160,168L148,156L141,145L137,136L134,127L132,115L132,98L133,91L137,78L143,65L149,56Z M198,26L206,25L219,25L231,27L246,32L252,35L258,39L271,50L277,57L283,66L288,76L293,93L294,102L294,110L293,111L293,120L292,125L287,140L280,152L271,163L258,174L245,181L237,184L223,187L201,187L195,186L182,182L170,176L167,174L165,171L173,163L181,152L189,135L192,124L193,117L193,96L191,85L186,71L180,60L176,54L165,41L170,37L179,32L190,28Z M100,25L114,25L130,28L136,30L148,36L151,38L155,42L149,47L138,62L132,74L129,83L126,99L126,115L127,123L131,137L133,142L139,153L143,159L154,172L152,174L144,179L135,183L124,186L118,187L95,187L85,185L74,181L66,177L57,171L43,157L35,145L32,139L28,127L26,116L26,98L28,87L30,80L37,65L45,54L55,44L60,40L68,35L76,31L88,27Z" fill="currentColor" fill-rule="evenodd"/>
</svg>
