<svg xmlns="http://www.w3.org/2000/svg" viewBox="0 0 513 498" preserveAspectRatio="xMidYMid meet" aria-hidden="true">
  <path d="M34,34L24,48L12,76L10,77L10,85L12,86L11,101L13,106L13,115L16,122L16,129L20,143L29,161L41,174L48,187L69,213L84,228L97,238L133,274L161,319L173,335L177,344L186,353L192,356L207,369L227,390L241,399L279,430L317,453L327,461L344,468L370,483L391,485L392,487L422,487L423,485L431,483L442,476L454,463L467,453L486,430L494,413L494,407L500,391L500,384L502,383L502,367L498,362L493,340L480,323L459,290L445,275L440,265L415,243L401,226L380,213L357,192L331,152L312,130L281,106L255,93L240,78L209,55L173,35L153,21L114,12L113,10L85,10L84,12L66,14L53,20Z" fill="currentColor"/>
</svg>
