<svg xmlns="http://www.w3.org/2000/svg" viewBox="0 0 488 504" preserveAspectRatio="xMidYMid meet" aria-hidden="true">
  <path d="M216,10L215,12L194,18L185,18L179,21L162,24L149,36L122,44L111,51L86,75L75,81L63,94L54,112L34,144L19,182L16,194L17,200L13,231L12,259L10,260L10,288L13,291L27,320L42,340L42,344L47,352L49,360L64,386L77,403L84,416L98,431L144,466L168,479L175,480L185,485L194,485L212,491L221,491L222,493L260,491L263,493L264,491L274,491L283,488L304,475L313,472L322,472L333,467L370,457L396,437L409,424L415,414L435,391L439,380L466,334L470,308L475,294L477,293L477,244L475,243L466,221L461,202L454,190L457,175L446,152L446,147L438,125L422,98L396,66L385,60L373,48L358,43L344,32L317,22L304,15L290,12L289,10L278,13L269,12L268,10L252,10L251,12Z" fill="currentColor"/>
</svg>
