<svg xmlns="http://www.w3.org/2000/svg" viewBox="0 0 624 420" preserveAspectRatio="xMidYMid meet" aria-hidden="true">
  <path d="M19,164L12,215L10,216L10,241L13,245L16,268L24,299L29,310L40,325L74,356L111,384L140,391L164,392L188,401L231,406L252,405L262,407L263,409L305,409L306,407L367,409L368,407L388,405L416,397L442,394L466,385L484,382L535,364L551,356L566,344L581,321L598,280L600,265L608,245L611,225L613,224L613,175L611,174L609,163L599,143L570,108L552,75L517,42L487,26L463,20L444,22L416,30L400,37L372,39L336,32L313,21L286,12L285,10L266,10L265,12L238,23L197,51L159,64L115,70L64,91L53,100L38,117Z" fill="currentColor"/>
</svg>
