<svg xmlns="http://www.w3.org/2000/svg" viewBox="0 0 385 606" preserveAspectRatio="xMidYMid meet" aria-hidden="true">
  <path d="M151,10L150,12L142,13L123,20L77,49L69,59L65,69L65,74L58,85L58,89L39,120L35,132L31,158L32,194L26,231L22,274L14,302L12,316L10,317L10,332L13,337L15,362L18,370L25,380L36,408L61,452L70,476L78,509L97,538L120,561L139,576L151,583L178,591L198,593L199,595L224,595L225,593L272,587L283,584L294,578L335,536L343,522L343,499L349,468L370,418L369,396L372,369L371,363L372,356L374,355L374,351L372,350L374,319L372,318L371,307L367,298L364,280L353,251L348,228L331,201L312,163L280,125L271,111L261,87L243,68L221,30L212,21L196,12L193,12L192,10Z" fill="currentColor"/>
</svg>
