<svg xmlns="http://www.w3.org/2000/svg" viewBox="0 0 83 83" preserveAspectRatio="xMidYMid meet" aria-hidden="true">
  <path d="M65,20.5L59,23.5L56,26.5L55,26.5L53,28.5L53,29.5L50,32.5L47,40.5L47,50.5L48,53.5L50,57.5L54,60.5L59,61.5L63,60.5L67,56.5L67,52.5L66,50.5L64,48.5L62,47.5L57,47.5L54,49.5L52,49.5L50,47.5L50,38.5L52,33.5L54,30.5L58,26.5L61,24.5L68,21.5Z M51,51.5L54,51.5L57,49.5L61,49.5L63,50.5L65,52.5L65,55.5L62,58.5L59,59.5L57,59.5L55,58.5Z M35,20.5L32,20.5L25,24.5L19,30.5L17,33.5L15,38.5L14,43.5L14,48.5L15,52.5L17,56.5L20,59.5L22,60.5L26,61.5L32,59.5L34,57.5L34,51.5L33,49.5L29,47.5L25,47.5L21,49.5L19,49.5L17,47.5L17,40.5L18,36.5L21,31.5L27,25.5Z M17,52.5L21,51.5L25,49.5L29,49.5L32,52.5L32,56.5L30,58.5L23,58.5L21,57.5L18,54.5Z" fill="currentColor" fill-rule="evenodd"/>
</svg>
