<svg xmlns="http://www.w3.org/2000/svg" viewBox="0 0 82 82" preserveAspectRatio="xMidYMid meet" aria-hidden="true">
  <path d="M59,20L51,20L47,24L47,29L50,32L52,33L62,32L64,34L64,36L65,38L63,46L61,49L54,56L47,59L48,61L51,60L56,57L63,50L66,44L67,40L67,31L65,25L61,21Z M49,25L52,22L58,22L60,23L64,27L63,30L58,31L53,31L51,30L49,28Z M26,20L18,20L14,24L14,29L17,32L19,33L29,32L31,34L32,36L32,39L30,46L28,49L21,56L14,59L15,61L18,59L20,59L23,57L30,50L34,41L34,30L32,25L28,21Z M16,25L19,22L25,22L27,23L30,26L30,30L25,31L19,31L16,28Z" fill="currentColor" fill-rule="evenodd"/>
</svg>
